<svg xmlns="http://www.w3.org/2000/svg" xmlns:xlink="http://www.w3.org/1999/xlink" width="248" zoomAndPan="magnify" viewBox="0 0 186 51.749998" height="69" preserveAspectRatio="xMidYMid meet" version="1.0"><defs><g/><clipPath id="745ca938c1"><path d="M 9 23 L 27.976562 23 L 27.976562 31 L 9 31 Z M 9 23 " clip-rule="nonzero"/></clipPath><clipPath id="0bbd03af53"><path d="M 0.445312 14.628906 L 27.976562 14.628906 L 27.976562 37 L 0.445312 37 Z M 0.445312 14.628906 " clip-rule="nonzero"/></clipPath><clipPath id="705999da66"><path d="M 14 37 L 27.976562 37 L 27.976562 38.222656 L 14 38.222656 Z M 14 37 " clip-rule="nonzero"/></clipPath></defs><g fill="#ffffff" fill-opacity="1"><g transform="translate(32.946492, 36.28179)"><g><path d="M 7.25 -24.515625 L 7.25 0 L 2.65625 0 L 2.65625 -24.515625 Z M 7.25 -24.515625 "/></g></g></g><g fill="#ffffff" fill-opacity="1"><g transform="translate(42.885826, 36.28179)"><g><path d="M 7.171875 -16.8125 L 7.171875 0 L 2.5625 0 L 2.5625 -16.8125 Z M 2 -21.78125 C 2 -22.269531 2.132812 -22.722656 2.40625 -23.140625 C 2.6875 -23.566406 3.050781 -23.90625 3.5 -24.15625 C 3.957031 -24.414062 4.4375 -24.546875 4.9375 -24.546875 C 5.738281 -24.546875 6.378906 -24.3125 6.859375 -23.84375 C 7.347656 -23.375 7.59375 -22.769531 7.59375 -22.03125 C 7.59375 -21.539062 7.457031 -21.082031 7.1875 -20.65625 C 6.914062 -20.226562 6.554688 -19.890625 6.109375 -19.640625 C 5.660156 -19.390625 5.179688 -19.265625 4.671875 -19.265625 C 4.171875 -19.265625 3.71875 -19.367188 3.3125 -19.578125 C 2.90625 -19.796875 2.582031 -20.097656 2.34375 -20.484375 C 2.113281 -20.867188 2 -21.300781 2 -21.78125 Z M 2 -21.78125 "/></g></g></g><g fill="#ffffff" fill-opacity="1"><g transform="translate(52.648211, 36.28179)"><g><path d="M 3.109375 -13.625 L 1.09375 -13.625 L 1.09375 -16.125 C 1.738281 -16.3125 2.207031 -16.453125 2.5 -16.546875 C 2.789062 -16.648438 3.046875 -16.789062 3.265625 -16.96875 C 3.492188 -17.15625 3.675781 -17.40625 3.8125 -17.71875 C 4.007812 -18.207031 4.375 -19.179688 4.90625 -20.640625 L 7.71875 -20.640625 L 7.71875 -16.8125 L 12.265625 -16.8125 L 12.265625 -13.625 L 7.71875 -13.625 L 7.71875 -6.875 C 7.71875 -5.75 7.773438 -4.929688 7.890625 -4.421875 C 8.003906 -3.910156 8.1875 -3.582031 8.4375 -3.4375 C 8.695312 -3.300781 9.09375 -3.234375 9.625 -3.234375 C 10.039062 -3.234375 10.515625 -3.300781 11.046875 -3.4375 C 11.585938 -3.582031 11.984375 -3.75 12.234375 -3.9375 L 12.796875 -1.359375 C 12.335938 -0.941406 11.644531 -0.570312 10.71875 -0.25 C 9.800781 0.0703125 8.8125 0.234375 7.75 0.234375 C 6.625 0.234375 5.722656 0.0625 5.046875 -0.28125 C 4.378906 -0.632812 3.890625 -1.191406 3.578125 -1.953125 C 3.265625 -2.710938 3.109375 -3.726562 3.109375 -5 Z M 3.109375 -13.625 "/></g></g></g><g fill="#ffffff" fill-opacity="1"><g transform="translate(66.14127, 36.28179)"><g><path d="M 3.109375 -13.625 L 1.09375 -13.625 L 1.09375 -16.125 C 1.738281 -16.3125 2.207031 -16.453125 2.5 -16.546875 C 2.789062 -16.648438 3.046875 -16.789062 3.265625 -16.96875 C 3.492188 -17.15625 3.675781 -17.40625 3.8125 -17.71875 C 4.007812 -18.207031 4.375 -19.179688 4.90625 -20.640625 L 7.71875 -20.640625 L 7.71875 -16.8125 L 12.265625 -16.8125 L 12.265625 -13.625 L 7.71875 -13.625 L 7.71875 -6.875 C 7.71875 -5.75 7.773438 -4.929688 7.890625 -4.421875 C 8.003906 -3.910156 8.1875 -3.582031 8.4375 -3.4375 C 8.695312 -3.300781 9.09375 -3.234375 9.625 -3.234375 C 10.039062 -3.234375 10.515625 -3.300781 11.046875 -3.4375 C 11.585938 -3.582031 11.984375 -3.75 12.234375 -3.9375 L 12.796875 -1.359375 C 12.335938 -0.941406 11.644531 -0.570312 10.71875 -0.25 C 9.800781 0.0703125 8.8125 0.234375 7.75 0.234375 C 6.625 0.234375 5.722656 0.0625 5.046875 -0.28125 C 4.378906 -0.632812 3.890625 -1.191406 3.578125 -1.953125 C 3.265625 -2.710938 3.109375 -3.726562 3.109375 -5 Z M 3.109375 -13.625 "/></g></g></g><g fill="#ffffff" fill-opacity="1"><g transform="translate(79.634328, 36.28179)"><g><path d="M 7.390625 -20.484375 C 8.273438 -21.304688 9.15625 -22.25 10.03125 -23.3125 C 10.90625 -24.375 11.703125 -25.488281 12.421875 -26.65625 L 15.578125 -24.09375 C 15.304688 -23.476562 14.78125 -22.765625 14 -21.953125 C 13.21875 -21.148438 12.390625 -20.414062 11.515625 -19.75 C 10.648438 -19.082031 10.007812 -18.65625 9.59375 -18.46875 Z M 16.125 -10.453125 C 16.125 -9.035156 16.066406 -7.984375 15.953125 -7.296875 L 6.015625 -7.296875 C 6.109375 -5.910156 6.546875 -4.878906 7.328125 -4.203125 C 8.109375 -3.523438 9.164062 -3.1875 10.5 -3.1875 C 11.132812 -3.1875 11.90625 -3.269531 12.8125 -3.4375 C 13.726562 -3.613281 14.398438 -3.820312 14.828125 -4.0625 L 15.578125 -1.4375 C 14.992188 -0.96875 14.117188 -0.570312 12.953125 -0.25 C 11.796875 0.0703125 10.585938 0.234375 9.328125 0.234375 C 7.640625 0.234375 6.203125 -0.109375 5.015625 -0.796875 C 3.828125 -1.484375 2.925781 -2.476562 2.3125 -3.78125 C 1.707031 -5.082031 1.40625 -6.644531 1.40625 -8.46875 C 1.40625 -10.113281 1.722656 -11.585938 2.359375 -12.890625 C 2.992188 -14.191406 3.921875 -15.207031 5.140625 -15.9375 C 6.367188 -16.675781 7.832031 -17.046875 9.53125 -17.046875 C 10.75 -17.046875 11.847656 -16.820312 12.828125 -16.375 C 13.816406 -15.9375 14.609375 -15.222656 15.203125 -14.234375 C 15.796875 -13.253906 16.101562 -11.992188 16.125 -10.453125 Z M 11.84375 -9.84375 C 11.851562 -10 11.859375 -10.21875 11.859375 -10.5 C 11.859375 -11.570312 11.65625 -12.382812 11.25 -12.9375 C 10.84375 -13.5 10.191406 -13.78125 9.296875 -13.78125 C 8.390625 -13.78125 7.664062 -13.476562 7.125 -12.875 C 6.59375 -12.28125 6.25 -11.269531 6.09375 -9.84375 Z M 11.84375 -9.84375 "/></g></g></g><g fill="#ffffff" fill-opacity="1"><g transform="translate(97.211955, 36.28179)"><g><path d="M 11.390625 -17.09375 C 12.023438 -17.09375 12.460938 -17.023438 12.703125 -16.890625 L 12.703125 -12.453125 C 12.472656 -12.578125 12.210938 -12.675781 11.921875 -12.75 C 11.628906 -12.820312 11.210938 -12.859375 10.671875 -12.859375 C 9.253906 -12.859375 8.007812 -12.351562 6.9375 -11.34375 L 6.9375 0 L 2.328125 0 L 2.328125 -16.8125 L 6.421875 -16.8125 L 6.625 -14.515625 C 6.863281 -14.941406 7.226562 -15.351562 7.71875 -15.75 C 8.207031 -16.144531 8.769531 -16.46875 9.40625 -16.71875 C 10.050781 -16.96875 10.710938 -17.09375 11.390625 -17.09375 Z M 11.390625 -17.09375 "/></g></g></g><g fill="#ffffff" fill-opacity="1"><g transform="translate(110.896708, 36.28179)"><g><path d="M 8.953125 -17.140625 C 10.585938 -17.140625 11.890625 -16.957031 12.859375 -16.59375 C 13.835938 -16.238281 14.566406 -15.613281 15.046875 -14.71875 C 15.535156 -13.832031 15.78125 -12.585938 15.78125 -10.984375 L 15.78125 0.234375 L 13.09375 0.234375 C 12.65625 0.234375 12.320312 0.203125 12.09375 0.140625 C 11.863281 0.0859375 11.6875 -0.046875 11.5625 -0.265625 C 11.4375 -0.484375 11.375 -0.828125 11.375 -1.296875 L 11.375 -1.421875 C 10.863281 -0.941406 10.234375 -0.546875 9.484375 -0.234375 C 8.734375 0.078125 7.898438 0.234375 6.984375 0.234375 C 5.910156 0.234375 4.957031 0 4.125 -0.46875 C 3.289062 -0.9375 2.644531 -1.582031 2.1875 -2.40625 C 1.726562 -3.238281 1.5 -4.179688 1.5 -5.234375 C 1.5 -6.210938 1.75 -7.050781 2.25 -7.75 C 2.757812 -8.445312 3.488281 -9.007812 4.4375 -9.4375 C 5.90625 -10.082031 8.148438 -10.40625 11.171875 -10.40625 L 11.171875 -11.46875 C 11.171875 -12.101562 11.085938 -12.566406 10.921875 -12.859375 C 10.765625 -13.148438 10.457031 -13.347656 10 -13.453125 C 9.550781 -13.566406 8.832031 -13.625 7.84375 -13.625 C 7.375 -13.625 6.65625 -13.503906 5.6875 -13.265625 C 4.726562 -13.023438 3.90625 -12.75 3.21875 -12.4375 L 2.203125 -15.375 C 2.585938 -15.613281 3.15625 -15.867188 3.90625 -16.140625 C 4.65625 -16.421875 5.476562 -16.65625 6.375 -16.84375 C 7.269531 -17.039062 8.128906 -17.140625 8.953125 -17.140625 Z M 8.5625 -2.875 C 9.0625 -2.875 9.578125 -2.972656 10.109375 -3.171875 C 10.648438 -3.378906 11.003906 -3.59375 11.171875 -3.8125 L 11.171875 -7.8125 C 10.617188 -7.8125 9.988281 -7.75 9.28125 -7.625 C 8.582031 -7.507812 8.0625 -7.375 7.71875 -7.21875 C 7.269531 -7.039062 6.910156 -6.8125 6.640625 -6.53125 C 6.378906 -6.25 6.25 -5.828125 6.25 -5.265625 C 6.25 -4.472656 6.460938 -3.875 6.890625 -3.46875 C 7.316406 -3.070312 7.875 -2.875 8.5625 -2.875 Z M 8.5625 -2.875 "/></g></g></g><g fill="#ffffff" fill-opacity="1"><g transform="translate(128.960946, 36.28179)"><g><path d="M 22.421875 -17.109375 C 23.597656 -17.109375 24.582031 -16.894531 25.375 -16.46875 C 26.164062 -16.050781 26.765625 -15.363281 27.171875 -14.40625 C 27.585938 -13.445312 27.796875 -12.171875 27.796875 -10.578125 L 27.796875 0 L 23.203125 0 L 23.203125 -9.578125 C 23.203125 -10.503906 23.132812 -11.222656 23 -11.734375 C 22.875 -12.253906 22.644531 -12.628906 22.3125 -12.859375 C 21.988281 -13.097656 21.507812 -13.21875 20.875 -13.21875 C 20.3125 -13.21875 19.710938 -13.097656 19.078125 -12.859375 C 18.441406 -12.617188 17.90625 -12.320312 17.46875 -11.96875 C 17.5 -11.539062 17.515625 -11.023438 17.515625 -10.421875 L 17.515625 0 L 12.921875 0 L 12.921875 -9.5625 C 12.921875 -10.476562 12.851562 -11.195312 12.71875 -11.71875 C 12.582031 -12.238281 12.347656 -12.617188 12.015625 -12.859375 C 11.691406 -13.097656 11.226562 -13.21875 10.625 -13.21875 C 10.132812 -13.21875 9.554688 -13.109375 8.890625 -12.890625 C 8.222656 -12.671875 7.648438 -12.351562 7.171875 -11.9375 L 7.171875 0 L 2.5625 0 L 2.5625 -16.8125 L 6.734375 -16.8125 L 6.828125 -15.015625 C 7.503906 -15.523438 8.347656 -15.992188 9.359375 -16.421875 C 10.378906 -16.847656 11.359375 -17.078125 12.296875 -17.109375 C 13.335938 -17.148438 14.21875 -17.003906 14.9375 -16.671875 C 15.65625 -16.335938 16.222656 -15.804688 16.640625 -15.078125 C 17.296875 -15.585938 18.148438 -16.050781 19.203125 -16.46875 C 20.253906 -16.894531 21.328125 -17.109375 22.421875 -17.109375 Z M 22.421875 -17.109375 "/></g></g></g><g fill="#ffffff" fill-opacity="1"><g transform="translate(159.175668, 36.28179)"><g><path d="M 8.953125 -17.140625 C 10.585938 -17.140625 11.890625 -16.957031 12.859375 -16.59375 C 13.835938 -16.238281 14.566406 -15.613281 15.046875 -14.71875 C 15.535156 -13.832031 15.78125 -12.585938 15.78125 -10.984375 L 15.78125 0.234375 L 13.09375 0.234375 C 12.65625 0.234375 12.320312 0.203125 12.09375 0.140625 C 11.863281 0.0859375 11.6875 -0.046875 11.5625 -0.265625 C 11.4375 -0.484375 11.375 -0.828125 11.375 -1.296875 L 11.375 -1.421875 C 10.863281 -0.941406 10.234375 -0.546875 9.484375 -0.234375 C 8.734375 0.078125 7.898438 0.234375 6.984375 0.234375 C 5.910156 0.234375 4.957031 0 4.125 -0.46875 C 3.289062 -0.9375 2.644531 -1.582031 2.1875 -2.40625 C 1.726562 -3.238281 1.5 -4.179688 1.5 -5.234375 C 1.5 -6.210938 1.75 -7.050781 2.25 -7.75 C 2.757812 -8.445312 3.488281 -9.007812 4.4375 -9.4375 C 5.90625 -10.082031 8.148438 -10.40625 11.171875 -10.40625 L 11.171875 -11.46875 C 11.171875 -12.101562 11.085938 -12.566406 10.921875 -12.859375 C 10.765625 -13.148438 10.457031 -13.347656 10 -13.453125 C 9.550781 -13.566406 8.832031 -13.625 7.84375 -13.625 C 7.375 -13.625 6.65625 -13.503906 5.6875 -13.265625 C 4.726562 -13.023438 3.90625 -12.75 3.21875 -12.4375 L 2.203125 -15.375 C 2.585938 -15.613281 3.15625 -15.867188 3.90625 -16.140625 C 4.65625 -16.421875 5.476562 -16.65625 6.375 -16.84375 C 7.269531 -17.039062 8.128906 -17.140625 8.953125 -17.140625 Z M 8.5625 -2.875 C 9.0625 -2.875 9.578125 -2.972656 10.109375 -3.171875 C 10.648438 -3.378906 11.003906 -3.59375 11.171875 -3.8125 L 11.171875 -7.8125 C 10.617188 -7.8125 9.988281 -7.75 9.28125 -7.625 C 8.582031 -7.507812 8.0625 -7.375 7.71875 -7.21875 C 7.269531 -7.039062 6.910156 -6.8125 6.640625 -6.53125 C 6.378906 -6.25 6.25 -5.828125 6.25 -5.265625 C 6.25 -4.472656 6.460938 -3.875 6.890625 -3.46875 C 7.316406 -3.070312 7.875 -2.875 8.5625 -2.875 Z M 8.5625 -2.875 "/></g></g></g><g clip-path="url(#745ca938c1)"><path fill="#27799b" d="M 25.816406 23.273438 C 25.578125 23.320312 25.339844 23.367188 25.101562 23.414062 C 25.082031 23.414062 23.289062 23.734375 19.722656 24.367188 C 18.140625 24.632812 16.558594 24.902344 14.980469 25.1875 C 14.886719 25.203125 14.792969 25.226562 14.707031 25.257812 L 14.710938 25.257812 C 14.109375 25.363281 13.484375 25.476562 12.832031 25.59375 L 12.835938 25.59375 C 12.808594 25.589844 12.78125 25.589844 12.753906 25.589844 C 11.929688 25.753906 11.113281 25.902344 10.292969 26.089844 C 10.03125 26.148438 9.820312 26.433594 9.84375 26.996094 C 9.847656 27.097656 9.855469 27.183594 9.875 27.257812 C 9.875 27.253906 9.871094 27.25 9.871094 27.246094 C 9.875 28.558594 10.289062 29.640625 11.113281 30.496094 C 11.285156 30.683594 11.546875 30.75 11.839844 30.710938 C 12.824219 30.570312 13.804688 30.425781 14.789062 30.273438 L 19.625 29.578125 L 19.617188 29.578125 C 19.648438 29.574219 19.679688 29.574219 19.710938 29.570312 C 22.039062 29.226562 24.308594 28.894531 26.574219 28.539062 C 27.027344 28.464844 27.464844 28.242188 27.40625 27.6875 C 27.40625 27.691406 27.40625 27.695312 27.40625 27.699219 C 27.695312 26.542969 27.296875 25.160156 26.21875 23.546875 C 26.222656 23.550781 26.222656 23.554688 26.222656 23.558594 C 26.144531 23.335938 25.992188 23.269531 25.8125 23.273438 Z M 26.277344 23.964844 C 26.277344 23.957031 26.277344 23.949219 26.277344 23.941406 C 26.277344 23.949219 26.277344 23.957031 26.277344 23.964844 Z M 26.277344 23.9375 C 26.277344 23.929688 26.277344 23.921875 26.277344 23.914062 C 26.277344 23.921875 26.277344 23.929688 26.277344 23.9375 Z M 26.277344 23.914062 C 26.277344 23.90625 26.277344 23.898438 26.277344 23.890625 C 26.277344 23.898438 26.277344 23.90625 26.277344 23.914062 Z M 26.277344 23.886719 C 26.277344 23.878906 26.277344 23.875 26.277344 23.867188 C 26.277344 23.875 26.277344 23.878906 26.277344 23.886719 Z M 26.277344 23.863281 C 26.277344 23.855469 26.277344 23.847656 26.273438 23.84375 C 26.277344 23.847656 26.277344 23.855469 26.277344 23.863281 Z M 26.273438 23.839844 C 26.273438 23.835938 26.273438 23.828125 26.273438 23.820312 C 26.273438 23.828125 26.273438 23.835938 26.273438 23.839844 Z M 26.273438 23.820312 C 26.273438 23.8125 26.273438 23.804688 26.273438 23.796875 C 26.273438 23.804688 26.273438 23.8125 26.273438 23.820312 Z M 26.273438 23.796875 C 26.269531 23.789062 26.269531 23.78125 26.269531 23.777344 C 26.269531 23.78125 26.269531 23.789062 26.273438 23.796875 Z M 26.269531 23.773438 C 26.269531 23.769531 26.269531 23.761719 26.265625 23.753906 C 26.269531 23.761719 26.269531 23.769531 26.269531 23.773438 Z M 26.265625 23.753906 C 26.265625 23.746094 26.265625 23.742188 26.265625 23.734375 C 26.265625 23.742188 26.265625 23.746094 26.265625 23.753906 Z M 26.265625 23.734375 C 26.265625 23.726562 26.261719 23.71875 26.261719 23.714844 C 26.261719 23.71875 26.265625 23.726562 26.265625 23.734375 Z M 26.261719 23.714844 C 26.261719 23.707031 26.261719 23.699219 26.257812 23.695312 C 26.261719 23.699219 26.261719 23.707031 26.261719 23.714844 Z M 26.257812 23.695312 C 26.257812 23.6875 26.257812 23.679688 26.253906 23.675781 C 26.257812 23.679688 26.257812 23.6875 26.257812 23.695312 Z M 26.253906 23.675781 C 26.253906 23.667969 26.253906 23.664062 26.25 23.65625 C 26.253906 23.664062 26.253906 23.667969 26.253906 23.675781 Z M 26.25 23.65625 C 26.25 23.652344 26.25 23.644531 26.246094 23.640625 C 26.25 23.644531 26.25 23.652344 26.25 23.65625 Z M 26.246094 23.636719 C 26.246094 23.632812 26.246094 23.628906 26.242188 23.621094 C 26.246094 23.628906 26.246094 23.632812 26.246094 23.636719 Z M 26.242188 23.621094 C 26.242188 23.617188 26.242188 23.609375 26.238281 23.605469 C 26.242188 23.609375 26.242188 23.617188 26.242188 23.621094 Z M 26.238281 23.605469 C 26.238281 23.597656 26.234375 23.59375 26.234375 23.589844 C 26.234375 23.59375 26.238281 23.597656 26.238281 23.605469 Z M 26.234375 23.585938 C 26.230469 23.582031 26.230469 23.578125 26.230469 23.574219 C 26.230469 23.578125 26.234375 23.582031 26.234375 23.585938 Z M 26.230469 23.570312 C 26.226562 23.566406 26.226562 23.5625 26.222656 23.558594 C 26.226562 23.5625 26.226562 23.566406 26.230469 23.570312 Z M 19.589844 29.578125 C 19.585938 29.578125 19.578125 29.578125 19.574219 29.578125 C 19.578125 29.578125 19.585938 29.578125 19.589844 29.578125 Z M 19.53125 29.578125 C 19.523438 29.578125 19.519531 29.578125 19.511719 29.574219 C 19.519531 29.578125 19.523438 29.578125 19.53125 29.578125 Z M 19.351562 29.5625 C 19.347656 29.5625 19.34375 29.5625 19.339844 29.5625 C 19.34375 29.5625 19.347656 29.5625 19.351562 29.5625 Z M 19.332031 29.5625 C 19.328125 29.558594 19.324219 29.558594 19.320312 29.558594 C 19.324219 29.558594 19.328125 29.558594 19.332031 29.5625 Z M 19.3125 29.558594 C 19.308594 29.558594 19.304688 29.554688 19.300781 29.554688 C 19.304688 29.554688 19.308594 29.558594 19.3125 29.558594 Z M 19.292969 29.554688 C 19.289062 29.554688 19.28125 29.550781 19.277344 29.550781 Z M 19.292969 29.554688 C 19.289062 29.554688 19.28125 29.550781 19.277344 29.550781 C 19.28125 29.550781 19.289062 29.554688 19.292969 29.554688 Z M 19.273438 29.550781 C 19.269531 29.546875 19.261719 29.546875 19.257812 29.546875 C 19.261719 29.546875 19.269531 29.546875 19.273438 29.550781 Z M 19.25 29.542969 C 19.246094 29.542969 19.242188 29.542969 19.238281 29.542969 C 19.242188 29.542969 19.246094 29.542969 19.25 29.542969 Z M 19.234375 29.539062 C 19.230469 29.539062 19.226562 29.539062 19.222656 29.535156 C 19.226562 29.539062 19.230469 29.539062 19.234375 29.539062 Z M 19.214844 29.535156 C 19.210938 29.535156 19.207031 29.53125 19.203125 29.53125 C 19.207031 29.53125 19.210938 29.535156 19.214844 29.535156 Z M 19.195312 29.527344 C 19.195312 29.527344 19.191406 29.527344 19.1875 29.527344 C 19.191406 29.527344 19.195312 29.527344 19.195312 29.527344 Z M 19.179688 29.523438 C 19.175781 29.523438 19.171875 29.519531 19.171875 29.519531 C 19.171875 29.519531 19.175781 29.523438 19.179688 29.523438 Z M 19.160156 29.515625 C 19.160156 29.515625 19.15625 29.515625 19.152344 29.511719 C 19.15625 29.515625 19.160156 29.515625 19.160156 29.515625 Z M 19.144531 29.511719 C 19.140625 29.507812 19.140625 29.507812 19.136719 29.507812 C 19.140625 29.507812 19.140625 29.507812 19.144531 29.511719 Z M 19.128906 29.503906 C 19.125 29.5 19.121094 29.5 19.117188 29.5 C 19.121094 29.5 19.125 29.5 19.128906 29.503906 Z M 19.113281 29.496094 C 19.109375 29.492188 19.105469 29.492188 19.101562 29.492188 C 19.105469 29.492188 19.109375 29.492188 19.113281 29.496094 Z M 19.09375 29.488281 C 19.09375 29.484375 19.089844 29.484375 19.085938 29.484375 C 19.089844 29.484375 19.089844 29.484375 19.09375 29.488281 Z M 19.078125 29.480469 C 19.074219 29.476562 19.070312 29.476562 19.070312 29.472656 C 19.070312 29.476562 19.074219 29.476562 19.078125 29.480469 Z M 19.0625 29.46875 C 19.050781 29.464844 19.042969 29.457031 19.03125 29.453125 C 19.042969 29.457031 19.050781 29.464844 19.0625 29.46875 Z M 19.027344 29.449219 C 19.023438 29.445312 19.019531 29.445312 19.015625 29.441406 C 19.019531 29.445312 19.023438 29.445312 19.027344 29.449219 Z M 19.011719 29.4375 C 19.007812 29.4375 19.003906 29.433594 19 29.433594 C 19.003906 29.433594 19.007812 29.4375 19.011719 29.4375 Z M 18.996094 29.425781 C 18.992188 29.425781 18.988281 29.421875 18.988281 29.421875 C 18.988281 29.421875 18.992188 29.425781 18.996094 29.425781 Z M 18.980469 29.417969 C 18.976562 29.414062 18.976562 29.410156 18.972656 29.410156 C 18.976562 29.410156 18.976562 29.414062 18.980469 29.417969 Z M 18.964844 29.40625 C 18.964844 29.402344 18.960938 29.398438 18.957031 29.398438 C 18.960938 29.398438 18.964844 29.402344 18.964844 29.40625 Z M 18.953125 29.394531 C 18.949219 29.390625 18.949219 29.386719 18.945312 29.386719 C 18.949219 29.386719 18.949219 29.390625 18.953125 29.394531 Z M 18.9375 29.378906 C 18.9375 29.378906 18.933594 29.375 18.933594 29.371094 C 18.933594 29.375 18.9375 29.378906 18.9375 29.378906 Z M 18.925781 29.367188 C 18.921875 29.363281 18.921875 29.363281 18.917969 29.359375 C 18.921875 29.363281 18.921875 29.363281 18.925781 29.367188 Z M 18.914062 29.355469 C 18.910156 29.351562 18.90625 29.347656 18.90625 29.34375 C 18.90625 29.347656 18.910156 29.351562 18.914062 29.355469 Z M 18.898438 29.339844 C 18.898438 29.335938 18.894531 29.332031 18.894531 29.332031 C 18.894531 29.332031 18.898438 29.335938 18.898438 29.339844 Z M 18.886719 29.324219 C 18.886719 29.320312 18.882812 29.320312 18.878906 29.316406 C 18.882812 29.320312 18.886719 29.320312 18.886719 29.324219 Z M 18.875 29.308594 C 18.875 29.304688 18.871094 29.304688 18.867188 29.300781 C 18.871094 29.300781 18.875 29.304688 18.875 29.308594 Z M 18.863281 29.292969 C 18.859375 29.289062 18.859375 29.285156 18.855469 29.28125 C 18.859375 29.285156 18.859375 29.289062 18.863281 29.292969 Z M 18.851562 29.277344 C 18.847656 29.273438 18.84375 29.265625 18.84375 29.261719 C 18.84375 29.265625 18.847656 29.273438 18.851562 29.277344 Z M 18.839844 29.253906 C 18.835938 29.25 18.832031 29.246094 18.832031 29.246094 C 18.832031 29.246094 18.835938 29.25 18.839844 29.253906 Z M 18.828125 29.234375 C 18.824219 29.234375 18.824219 29.230469 18.820312 29.226562 C 18.824219 29.230469 18.824219 29.234375 18.828125 29.234375 Z M 18.816406 29.21875 C 18.816406 29.214844 18.8125 29.210938 18.8125 29.207031 C 18.8125 29.210938 18.816406 29.214844 18.816406 29.21875 Z M 18.808594 29.199219 C 18.804688 29.195312 18.804688 29.191406 18.800781 29.1875 C 18.804688 29.191406 18.804688 29.195312 18.808594 29.199219 Z M 18.796875 29.179688 C 18.796875 29.175781 18.796875 29.171875 18.792969 29.167969 C 18.796875 29.171875 18.796875 29.175781 18.796875 29.179688 Z M 18.789062 29.160156 C 18.789062 29.15625 18.785156 29.152344 18.785156 29.148438 C 18.785156 29.152344 18.789062 29.15625 18.789062 29.160156 Z M 18.78125 29.140625 C 18.78125 29.136719 18.777344 29.132812 18.777344 29.128906 C 18.777344 29.132812 18.78125 29.136719 18.78125 29.140625 Z M 18.773438 29.117188 C 18.773438 29.113281 18.769531 29.109375 18.769531 29.105469 C 18.769531 29.109375 18.773438 29.113281 18.773438 29.117188 Z M 18.765625 29.097656 C 18.765625 29.089844 18.761719 29.085938 18.761719 29.082031 C 18.761719 29.085938 18.765625 29.089844 18.765625 29.097656 Z M 18.757812 29.074219 C 18.757812 29.070312 18.757812 29.066406 18.753906 29.058594 C 18.757812 29.066406 18.757812 29.070312 18.757812 29.074219 Z M 18.753906 29.050781 C 18.75 29.046875 18.75 29.039062 18.75 29.035156 C 18.75 29.039062 18.75 29.046875 18.753906 29.050781 Z M 18.746094 29.027344 C 18.746094 29.019531 18.742188 29.015625 18.742188 29.007812 C 18.742188 29.015625 18.746094 29.019531 18.746094 29.027344 Z M 18.738281 29.003906 C 18.738281 28.996094 18.738281 28.984375 18.734375 28.976562 C 18.738281 28.984375 18.738281 28.996094 18.738281 29.003906 Z M 27.421875 27.664062 C 27.421875 27.671875 27.425781 27.679688 27.425781 27.691406 C 27.425781 27.679688 27.421875 27.671875 27.421875 27.664062 Z M 14.203125 26.097656 C 14.203125 26.085938 14.203125 26.078125 14.203125 26.070312 C 14.203125 26.078125 14.203125 26.085938 14.203125 26.097656 Z M 14.199219 26.0625 C 14.199219 26.058594 14.199219 26.050781 14.199219 26.046875 C 14.199219 26.054688 14.199219 26.058594 14.199219 26.0625 Z M 14.199219 26.039062 C 14.199219 26.035156 14.199219 26.027344 14.199219 26.023438 C 14.199219 26.027344 14.199219 26.035156 14.199219 26.039062 Z M 14.195312 26.015625 C 14.195312 26.007812 14.195312 26 14.195312 25.992188 C 14.195312 26 14.195312 26.007812 14.195312 26.015625 Z M 14.195312 25.992188 C 14.195312 25.984375 14.195312 25.976562 14.195312 25.96875 C 14.195312 25.976562 14.195312 25.984375 14.195312 25.992188 Z M 14.195312 25.960938 C 14.195312 25.957031 14.195312 25.953125 14.195312 25.945312 C 14.195312 25.953125 14.195312 25.957031 14.195312 25.960938 Z M 14.195312 25.9375 C 14.195312 25.933594 14.195312 25.929688 14.195312 25.925781 C 14.195312 25.929688 14.195312 25.933594 14.195312 25.9375 Z M 14.195312 25.917969 C 14.199219 25.910156 14.199219 25.902344 14.199219 25.894531 C 14.199219 25.886719 14.199219 25.882812 14.199219 25.875 C 14.199219 25.882812 14.199219 25.886719 14.199219 25.894531 Z M 14.199219 25.890625 C 14.199219 25.882812 14.199219 25.878906 14.203125 25.875 C 14.199219 25.878906 14.199219 25.882812 14.199219 25.890625 Z M 14.203125 25.867188 C 14.203125 25.863281 14.203125 25.859375 14.203125 25.855469 C 14.203125 25.859375 14.203125 25.863281 14.203125 25.867188 Z M 14.207031 25.847656 C 14.207031 25.839844 14.207031 25.835938 14.207031 25.828125 C 14.207031 25.835938 14.207031 25.839844 14.207031 25.847656 Z M 14.210938 25.828125 C 14.210938 25.820312 14.210938 25.8125 14.214844 25.808594 C 14.210938 25.8125 14.210938 25.820312 14.210938 25.828125 Z M 14.214844 25.800781 C 14.214844 25.796875 14.214844 25.792969 14.21875 25.789062 C 14.214844 25.792969 14.214844 25.796875 14.214844 25.800781 Z M 14.21875 25.78125 C 14.222656 25.777344 14.222656 25.773438 14.222656 25.769531 C 14.222656 25.773438 14.222656 25.777344 14.21875 25.78125 Z M 14.226562 25.761719 C 14.226562 25.757812 14.226562 25.753906 14.230469 25.746094 C 14.226562 25.753906 14.226562 25.757812 14.226562 25.761719 Z M 14.230469 25.746094 C 14.234375 25.738281 14.234375 25.734375 14.238281 25.726562 C 14.234375 25.734375 14.234375 25.738281 14.230469 25.746094 Z M 14.238281 25.722656 C 14.238281 25.71875 14.242188 25.714844 14.242188 25.710938 C 14.242188 25.714844 14.238281 25.71875 14.238281 25.722656 Z M 14.246094 25.703125 C 14.246094 25.699219 14.25 25.695312 14.25 25.691406 C 14.25 25.695312 14.246094 25.699219 14.246094 25.703125 Z M 14.253906 25.6875 C 14.253906 25.679688 14.257812 25.675781 14.261719 25.671875 C 14.257812 25.675781 14.253906 25.679688 14.253906 25.6875 Z M 14.261719 25.667969 C 14.261719 25.664062 14.265625 25.660156 14.269531 25.652344 C 14.265625 25.660156 14.261719 25.664062 14.261719 25.667969 Z M 14.269531 25.648438 C 14.273438 25.644531 14.273438 25.640625 14.277344 25.636719 C 14.273438 25.640625 14.273438 25.644531 14.269531 25.648438 Z M 14.28125 25.632812 C 14.28125 25.628906 14.285156 25.625 14.285156 25.621094 C 14.285156 25.625 14.28125 25.628906 14.28125 25.632812 Z M 14.289062 25.617188 C 14.292969 25.609375 14.292969 25.605469 14.296875 25.601562 C 14.292969 25.605469 14.292969 25.613281 14.289062 25.617188 Z M 14.300781 25.601562 C 14.300781 25.59375 14.304688 25.589844 14.308594 25.585938 C 14.304688 25.589844 14.300781 25.59375 14.300781 25.601562 Z M 14.3125 25.582031 C 14.3125 25.578125 14.316406 25.574219 14.320312 25.570312 C 14.316406 25.574219 14.3125 25.578125 14.3125 25.582031 Z M 14.324219 25.566406 C 14.324219 25.5625 14.328125 25.558594 14.328125 25.554688 C 14.328125 25.558594 14.324219 25.5625 14.324219 25.566406 Z M 14.332031 25.550781 C 14.335938 25.546875 14.339844 25.542969 14.34375 25.539062 C 14.339844 25.542969 14.335938 25.546875 14.332031 25.550781 Z M 14.34375 25.539062 C 14.347656 25.53125 14.351562 25.527344 14.355469 25.523438 C 14.351562 25.527344 14.347656 25.53125 14.34375 25.539062 Z M 14.359375 25.519531 C 14.363281 25.515625 14.367188 25.511719 14.367188 25.511719 C 14.367188 25.511719 14.363281 25.515625 14.359375 25.519531 Z M 14.371094 25.507812 C 14.375 25.503906 14.378906 25.5 14.378906 25.496094 C 14.378906 25.5 14.375 25.503906 14.371094 25.507812 Z M 14.386719 25.492188 C 14.386719 25.488281 14.390625 25.484375 14.394531 25.480469 C 14.390625 25.484375 14.386719 25.488281 14.386719 25.492188 Z M 14.398438 25.480469 C 14.402344 25.476562 14.40625 25.472656 14.410156 25.46875 C 14.40625 25.472656 14.402344 25.476562 14.398438 25.480469 Z M 14.414062 25.464844 C 14.417969 25.460938 14.421875 25.460938 14.421875 25.457031 C 14.421875 25.457031 14.417969 25.460938 14.414062 25.464844 Z M 14.429688 25.453125 C 14.429688 25.449219 14.433594 25.445312 14.4375 25.445312 C 14.433594 25.445312 14.429688 25.449219 14.429688 25.453125 Z M 14.441406 25.441406 C 14.445312 25.4375 14.449219 25.433594 14.453125 25.429688 C 14.449219 25.433594 14.445312 25.4375 14.441406 25.441406 Z M 14.457031 25.429688 C 14.460938 25.425781 14.464844 25.421875 14.46875 25.417969 C 14.464844 25.421875 14.460938 25.425781 14.457031 25.429688 Z M 14.472656 25.414062 C 14.476562 25.414062 14.480469 25.410156 14.484375 25.40625 C 14.480469 25.410156 14.476562 25.414062 14.472656 25.414062 Z M 14.488281 25.402344 C 14.492188 25.402344 14.496094 25.398438 14.5 25.398438 C 14.496094 25.398438 14.492188 25.402344 14.488281 25.402344 Z M 14.503906 25.394531 C 14.507812 25.390625 14.511719 25.386719 14.519531 25.386719 C 14.511719 25.386719 14.507812 25.390625 14.503906 25.394531 Z M 14.519531 25.382812 C 14.527344 25.378906 14.53125 25.378906 14.535156 25.375 C 14.53125 25.378906 14.527344 25.378906 14.519531 25.382812 Z M 14.539062 25.371094 C 14.542969 25.371094 14.546875 25.367188 14.550781 25.363281 C 14.546875 25.367188 14.542969 25.371094 14.539062 25.371094 Z M 14.558594 25.363281 C 14.5625 25.359375 14.566406 25.355469 14.570312 25.355469 C 14.566406 25.355469 14.5625 25.359375 14.558594 25.363281 Z M 14.574219 25.351562 C 14.578125 25.347656 14.582031 25.347656 14.585938 25.34375 C 14.582031 25.347656 14.578125 25.347656 14.574219 25.351562 Z M 14.589844 25.34375 C 14.597656 25.339844 14.601562 25.335938 14.605469 25.335938 C 14.601562 25.335938 14.597656 25.339844 14.589844 25.34375 Z M 14.613281 25.332031 C 14.617188 25.332031 14.621094 25.328125 14.625 25.328125 C 14.621094 25.328125 14.617188 25.332031 14.613281 25.332031 Z M 14.628906 25.324219 C 14.632812 25.320312 14.636719 25.320312 14.640625 25.316406 C 14.636719 25.320312 14.632812 25.320312 14.628906 25.324219 Z M 14.648438 25.316406 C 14.652344 25.3125 14.65625 25.3125 14.664062 25.308594 C 14.65625 25.3125 14.652344 25.3125 14.648438 25.316406 Z M 14.664062 25.308594 C 14.671875 25.304688 14.675781 25.304688 14.683594 25.300781 C 14.675781 25.304688 14.671875 25.304688 14.664062 25.308594 Z M 14.6875 25.300781 C 14.691406 25.296875 14.695312 25.296875 14.699219 25.292969 C 14.695312 25.296875 14.691406 25.296875 14.6875 25.300781 Z M 14.707031 25.292969 C 14.710938 25.289062 14.714844 25.289062 14.71875 25.285156 Z M 12.867188 25.621094 C 12.867188 25.621094 12.871094 25.621094 12.875 25.621094 C 12.871094 25.621094 12.867188 25.621094 12.867188 25.621094 Z M 12.890625 25.625 C 12.894531 25.625 12.894531 25.625 12.898438 25.625 C 12.894531 25.625 12.894531 25.625 12.890625 25.625 Z M 12.914062 25.628906 C 12.914062 25.628906 12.917969 25.628906 12.917969 25.632812 C 12.917969 25.628906 12.914062 25.628906 12.914062 25.628906 Z M 12.945312 25.640625 C 12.945312 25.640625 12.949219 25.640625 12.949219 25.640625 C 12.949219 25.640625 12.945312 25.640625 12.945312 25.640625 Z M 12.953125 25.640625 C 12.957031 25.644531 12.957031 25.644531 12.960938 25.644531 C 12.957031 25.644531 12.957031 25.644531 12.953125 25.640625 Z M 12.964844 25.644531 C 12.964844 25.648438 12.96875 25.648438 12.972656 25.648438 C 12.96875 25.648438 12.964844 25.648438 12.964844 25.644531 Z M 12.972656 25.652344 C 12.976562 25.652344 12.980469 25.652344 12.984375 25.65625 C 12.980469 25.652344 12.976562 25.652344 12.972656 25.652344 Z M 12.988281 25.65625 C 12.988281 25.65625 12.992188 25.660156 12.992188 25.660156 C 12.992188 25.660156 12.988281 25.65625 12.988281 25.65625 Z M 12.996094 25.660156 C 13 25.664062 13 25.664062 13.003906 25.664062 C 13 25.664062 13 25.664062 12.996094 25.660156 Z M 13.007812 25.667969 C 13.007812 25.667969 13.007812 25.667969 13.011719 25.671875 C 13.007812 25.667969 13.007812 25.667969 13.007812 25.667969 Z M 13.042969 25.691406 C 13.042969 25.695312 13.046875 25.695312 13.046875 25.695312 C 13.046875 25.695312 13.042969 25.695312 13.042969 25.691406 Z M 13.050781 25.699219 C 13.054688 25.699219 13.054688 25.703125 13.058594 25.703125 C 13.054688 25.703125 13.054688 25.699219 13.050781 25.699219 Z M 13.058594 25.707031 C 13.0625 25.707031 13.066406 25.710938 13.066406 25.714844 C 13.066406 25.710938 13.0625 25.707031 13.058594 25.707031 Z M 13.066406 25.714844 C 13.070312 25.714844 13.074219 25.71875 13.074219 25.722656 C 13.074219 25.71875 13.070312 25.714844 13.066406 25.714844 Z M 13.078125 25.726562 C 13.082031 25.726562 13.082031 25.730469 13.082031 25.730469 C 13.082031 25.730469 13.082031 25.726562 13.078125 25.726562 Z M 13.085938 25.734375 C 13.089844 25.734375 13.089844 25.738281 13.089844 25.738281 C 13.089844 25.738281 13.089844 25.734375 13.085938 25.734375 Z M 13.109375 25.761719 C 13.109375 25.761719 13.113281 25.765625 13.113281 25.769531 C 13.113281 25.765625 13.109375 25.761719 13.109375 25.761719 Z M 13.117188 25.769531 C 13.117188 25.773438 13.121094 25.777344 13.121094 25.777344 C 13.121094 25.777344 13.117188 25.773438 13.117188 25.769531 Z M 13.125 25.78125 C 13.125 25.785156 13.128906 25.789062 13.128906 25.789062 C 13.128906 25.789062 13.125 25.785156 13.125 25.78125 Z M 13.140625 25.804688 C 13.140625 25.808594 13.140625 25.8125 13.144531 25.816406 C 13.140625 25.8125 13.140625 25.808594 13.140625 25.804688 Z M 13.144531 25.820312 C 13.148438 25.820312 13.148438 25.824219 13.148438 25.828125 C 13.148438 25.824219 13.148438 25.820312 13.144531 25.820312 Z M 13.152344 25.832031 C 13.152344 25.835938 13.15625 25.835938 13.15625 25.839844 C 13.15625 25.835938 13.152344 25.835938 13.152344 25.832031 Z M 13.160156 25.84375 C 13.160156 25.847656 13.160156 25.851562 13.160156 25.851562 Z M 13.171875 25.871094 C 13.171875 25.875 13.171875 25.878906 13.171875 25.878906 C 13.171875 25.878906 13.171875 25.875 13.171875 25.871094 Z M 13.175781 25.886719 C 13.175781 25.886719 13.175781 25.890625 13.179688 25.894531 C 13.175781 25.890625 13.175781 25.886719 13.175781 25.886719 Z M 13.179688 25.898438 C 13.183594 25.902344 13.183594 25.90625 13.183594 25.910156 C 13.183594 25.90625 13.183594 25.902344 13.179688 25.898438 Z M 13.191406 25.929688 C 13.191406 25.933594 13.195312 25.941406 13.195312 25.945312 C 13.195312 25.941406 13.191406 25.933594 13.191406 25.929688 Z M 13.195312 25.949219 C 13.199219 25.953125 13.199219 25.957031 13.199219 25.960938 C 13.199219 25.957031 13.199219 25.953125 13.195312 25.949219 Z M 13.199219 25.96875 C 13.203125 25.972656 13.203125 25.972656 13.203125 25.976562 C 13.203125 25.972656 13.203125 25.972656 13.199219 25.96875 Z M 13.203125 25.984375 C 13.207031 25.988281 13.207031 25.992188 13.207031 25.996094 C 13.207031 25.992188 13.207031 25.988281 13.203125 25.984375 Z M 13.210938 26.019531 C 13.214844 26.023438 13.214844 26.027344 13.214844 26.03125 Z M 13.214844 26.039062 C 13.214844 26.042969 13.214844 26.046875 13.21875 26.050781 C 13.214844 26.046875 13.214844 26.042969 13.214844 26.039062 Z M 13.21875 26.054688 C 13.21875 26.058594 13.21875 26.066406 13.21875 26.070312 C 13.21875 26.066406 13.21875 26.058594 13.21875 26.054688 Z M 13.222656 26.09375 C 13.222656 26.101562 13.226562 26.109375 13.226562 26.113281 C 13.226562 26.109375 13.222656 26.101562 13.222656 26.09375 Z M 13.226562 26.121094 C 13.226562 26.128906 13.226562 26.132812 13.226562 26.136719 C 13.226562 26.132812 13.226562 26.125 13.226562 26.121094 Z M 13.230469 26.144531 C 13.230469 26.148438 13.230469 26.152344 13.230469 26.15625 C 13.230469 26.152344 13.230469 26.148438 13.230469 26.144531 Z M 13.234375 26.210938 C 13.234375 26.214844 13.234375 26.21875 13.234375 26.222656 C 13.234375 26.21875 13.234375 26.214844 13.234375 26.210938 Z M 13.234375 26.234375 C 13.234375 26.238281 13.234375 26.242188 13.234375 26.25 C 13.234375 26.242188 13.234375 26.238281 13.234375 26.234375 Z M 13.234375 26.257812 C 13.234375 26.261719 13.234375 26.269531 13.234375 26.273438 C 13.234375 26.269531 13.234375 26.261719 13.234375 26.257812 Z M 13.234375 26.28125 C 13.234375 26.289062 13.234375 26.296875 13.234375 26.304688 C 13.234375 26.296875 13.234375 26.289062 13.234375 26.28125 Z M 10.285156 27.632812 C 10.28125 27.632812 10.277344 27.632812 10.273438 27.636719 C 10.277344 27.632812 10.28125 27.632812 10.285156 27.632812 Z M 10.273438 27.636719 C 10.269531 27.636719 10.265625 27.636719 10.265625 27.636719 C 10.265625 27.636719 10.269531 27.636719 10.273438 27.636719 Z M 10.261719 27.636719 C 10.257812 27.636719 10.257812 27.636719 10.253906 27.636719 C 10.257812 27.636719 10.257812 27.636719 10.261719 27.636719 Z M 10.25 27.636719 C 10.25 27.636719 10.246094 27.636719 10.242188 27.640625 C 10.246094 27.636719 10.25 27.636719 10.25 27.636719 Z M 10.238281 27.640625 C 10.238281 27.640625 10.234375 27.640625 10.230469 27.640625 C 10.234375 27.640625 10.238281 27.640625 10.238281 27.640625 Z M 10.21875 27.640625 C 10.214844 27.640625 10.214844 27.640625 10.210938 27.640625 C 10.214844 27.640625 10.214844 27.640625 10.21875 27.640625 Z M 10.210938 27.640625 C 10.207031 27.636719 10.203125 27.636719 10.199219 27.636719 C 10.203125 27.636719 10.207031 27.636719 10.210938 27.640625 Z M 10.199219 27.636719 C 10.195312 27.636719 10.191406 27.636719 10.191406 27.636719 C 10.191406 27.636719 10.195312 27.636719 10.199219 27.636719 Z M 10.179688 27.636719 C 10.175781 27.636719 10.171875 27.636719 10.171875 27.632812 C 10.171875 27.636719 10.175781 27.636719 10.179688 27.636719 Z M 10.167969 27.632812 C 10.164062 27.632812 10.164062 27.632812 10.160156 27.632812 C 10.164062 27.632812 10.164062 27.632812 10.167969 27.632812 Z M 10.15625 27.632812 C 10.15625 27.632812 10.152344 27.628906 10.152344 27.628906 C 10.152344 27.628906 10.15625 27.632812 10.15625 27.632812 Z M 10.148438 27.628906 C 10.144531 27.628906 10.144531 27.628906 10.140625 27.628906 C 10.144531 27.628906 10.144531 27.628906 10.148438 27.628906 Z M 10.140625 27.625 C 10.136719 27.625 10.132812 27.625 10.132812 27.625 C 10.132812 27.625 10.136719 27.625 10.140625 27.625 Z M 10.128906 27.625 C 10.128906 27.621094 10.125 27.621094 10.121094 27.621094 C 10.125 27.621094 10.128906 27.621094 10.128906 27.625 Z M 10.121094 27.621094 C 10.117188 27.617188 10.117188 27.617188 10.113281 27.617188 C 10.117188 27.617188 10.117188 27.617188 10.121094 27.621094 Z M 10.109375 27.617188 C 10.109375 27.613281 10.105469 27.613281 10.105469 27.613281 C 10.105469 27.613281 10.109375 27.613281 10.109375 27.617188 Z M 10.101562 27.613281 C 10.097656 27.609375 10.097656 27.609375 10.09375 27.609375 C 10.097656 27.609375 10.097656 27.609375 10.101562 27.613281 Z M 10.09375 27.609375 C 10.089844 27.605469 10.089844 27.605469 10.085938 27.601562 C 10.089844 27.605469 10.089844 27.605469 10.09375 27.609375 Z M 10.082031 27.601562 C 10.082031 27.601562 10.078125 27.597656 10.078125 27.597656 C 10.078125 27.597656 10.082031 27.601562 10.082031 27.601562 Z M 10.074219 27.597656 C 10.074219 27.59375 10.070312 27.59375 10.070312 27.59375 C 10.070312 27.59375 10.074219 27.59375 10.074219 27.597656 Z M 10.066406 27.589844 C 10.0625 27.589844 10.0625 27.589844 10.058594 27.585938 C 10.0625 27.589844 10.0625 27.589844 10.066406 27.589844 Z M 10.058594 27.585938 C 10.054688 27.582031 10.054688 27.582031 10.050781 27.578125 C 10.054688 27.582031 10.054688 27.582031 10.058594 27.585938 Z M 10.050781 27.578125 C 10.046875 27.578125 10.046875 27.574219 10.042969 27.574219 C 10.046875 27.574219 10.046875 27.578125 10.050781 27.578125 Z M 10.039062 27.570312 C 10.039062 27.570312 10.039062 27.566406 10.035156 27.566406 C 10.039062 27.566406 10.039062 27.570312 10.039062 27.570312 Z M 10.035156 27.566406 C 10.03125 27.5625 10.027344 27.558594 10.027344 27.558594 C 10.027344 27.558594 10.03125 27.5625 10.035156 27.566406 Z M 10.023438 27.558594 C 10.023438 27.554688 10.019531 27.550781 10.019531 27.550781 C 10.019531 27.550781 10.023438 27.554688 10.023438 27.558594 Z M 10.015625 27.546875 C 10.015625 27.546875 10.015625 27.542969 10.011719 27.542969 C 10.015625 27.542969 10.015625 27.546875 10.015625 27.546875 Z M 10.007812 27.539062 C 10.007812 27.539062 10.007812 27.535156 10.003906 27.535156 C 10.007812 27.535156 10.007812 27.539062 10.007812 27.539062 Z M 10.003906 27.53125 C 10 27.53125 10 27.527344 9.996094 27.523438 C 10 27.527344 10 27.53125 10.003906 27.53125 Z M 9.996094 27.523438 C 9.992188 27.519531 9.992188 27.519531 9.988281 27.515625 C 9.992188 27.519531 9.992188 27.519531 9.996094 27.523438 Z M 9.988281 27.511719 C 9.984375 27.511719 9.984375 27.507812 9.984375 27.507812 C 9.984375 27.507812 9.984375 27.511719 9.988281 27.511719 Z M 9.980469 27.503906 C 9.980469 27.5 9.976562 27.5 9.976562 27.496094 C 9.976562 27.5 9.980469 27.5 9.980469 27.503906 Z M 9.976562 27.496094 C 9.972656 27.492188 9.96875 27.488281 9.96875 27.484375 C 9.96875 27.488281 9.972656 27.492188 9.976562 27.496094 Z M 9.96875 27.484375 C 9.964844 27.480469 9.964844 27.476562 9.960938 27.476562 C 9.964844 27.476562 9.964844 27.480469 9.96875 27.484375 Z M 9.960938 27.472656 C 9.960938 27.46875 9.957031 27.46875 9.957031 27.464844 Z M 9.949219 27.449219 C 9.945312 27.445312 9.945312 27.445312 9.945312 27.441406 C 9.945312 27.445312 9.945312 27.445312 9.949219 27.449219 Z M 9.941406 27.4375 C 9.941406 27.433594 9.941406 27.429688 9.9375 27.429688 C 9.941406 27.429688 9.941406 27.433594 9.941406 27.4375 Z M 9.9375 27.425781 C 9.933594 27.421875 9.933594 27.417969 9.933594 27.417969 C 9.933594 27.417969 9.933594 27.421875 9.9375 27.425781 Z M 9.929688 27.414062 C 9.929688 27.410156 9.929688 27.40625 9.925781 27.402344 C 9.929688 27.40625 9.929688 27.410156 9.929688 27.414062 Z M 9.925781 27.402344 C 9.925781 27.398438 9.921875 27.394531 9.921875 27.386719 C 9.921875 27.394531 9.925781 27.398438 9.925781 27.402344 Z M 9.910156 27.359375 C 9.910156 27.355469 9.90625 27.351562 9.90625 27.347656 C 9.90625 27.351562 9.910156 27.355469 9.910156 27.359375 Z M 9.90625 27.34375 C 9.90625 27.339844 9.902344 27.335938 9.902344 27.332031 C 9.902344 27.335938 9.90625 27.339844 9.90625 27.34375 Z M 9.902344 27.328125 C 9.898438 27.324219 9.898438 27.320312 9.898438 27.316406 C 9.898438 27.320312 9.898438 27.324219 9.902344 27.328125 Z M 9.898438 27.3125 C 9.894531 27.308594 9.894531 27.304688 9.894531 27.300781 C 9.894531 27.304688 9.894531 27.308594 9.898438 27.3125 Z M 9.894531 27.300781 C 9.890625 27.292969 9.890625 27.289062 9.890625 27.285156 Z M 11.132812 30.535156 C 11.128906 30.53125 11.125 30.527344 11.121094 30.523438 C 11.125 30.527344 11.128906 30.53125 11.132812 30.535156 Z M 11.121094 30.523438 C 11.117188 30.519531 11.113281 30.515625 11.109375 30.507812 C 11.113281 30.515625 11.117188 30.519531 11.121094 30.523438 Z M 11.109375 30.507812 C 11.105469 30.503906 11.101562 30.5 11.097656 30.496094 C 11.101562 30.5 11.105469 30.503906 11.109375 30.507812 Z M 11.097656 30.496094 C 11.09375 30.492188 11.089844 30.484375 11.085938 30.480469 C 11.089844 30.484375 11.09375 30.488281 11.097656 30.496094 Z M 11.085938 30.480469 C 11.082031 30.476562 11.078125 30.472656 11.074219 30.464844 C 11.078125 30.472656 11.082031 30.476562 11.085938 30.480469 Z M 11.074219 30.464844 C 11.070312 30.460938 11.070312 30.457031 11.066406 30.449219 C 11.070312 30.457031 11.070312 30.460938 11.074219 30.464844 Z M 11.066406 30.449219 C 11.0625 30.445312 11.058594 30.441406 11.054688 30.433594 C 11.058594 30.441406 11.0625 30.445312 11.066406 30.449219 Z M 11.054688 30.433594 C 11.050781 30.429688 11.046875 30.425781 11.046875 30.417969 C 11.046875 30.425781 11.050781 30.429688 11.054688 30.433594 Z M 11.046875 30.417969 C 11.042969 30.414062 11.039062 30.410156 11.035156 30.402344 C 11.039062 30.410156 11.042969 30.414062 11.046875 30.417969 Z M 11.035156 30.402344 C 11.03125 30.398438 11.03125 30.390625 11.027344 30.386719 C 11.03125 30.390625 11.03125 30.398438 11.035156 30.402344 Z M 11.027344 30.386719 C 11.023438 30.378906 11.019531 30.375 11.019531 30.371094 C 11.019531 30.375 11.023438 30.378906 11.027344 30.386719 Z M 11.019531 30.367188 C 11.015625 30.363281 11.011719 30.359375 11.011719 30.351562 C 11.011719 30.359375 11.015625 30.363281 11.019531 30.367188 Z M 11.007812 30.351562 C 11.007812 30.347656 11.003906 30.339844 11 30.335938 C 11.003906 30.339844 11.007812 30.347656 11.007812 30.351562 Z M 11 30.332031 C 11 30.328125 10.996094 30.320312 10.992188 30.316406 C 10.996094 30.320312 11 30.328125 11 30.332031 Z M 10.992188 30.316406 C 10.992188 30.308594 10.988281 30.304688 10.988281 30.296875 C 10.988281 30.304688 10.992188 30.308594 10.992188 30.316406 Z M 10.988281 30.296875 C 10.984375 30.289062 10.980469 30.285156 10.980469 30.277344 C 10.980469 30.285156 10.984375 30.289062 10.988281 30.296875 Z M 10.980469 30.277344 C 10.976562 30.273438 10.976562 30.265625 10.972656 30.257812 C 10.976562 30.265625 10.976562 30.273438 10.980469 30.277344 Z M 10.972656 30.257812 C 10.96875 30.253906 10.96875 30.246094 10.964844 30.238281 C 10.96875 30.246094 10.96875 30.253906 10.972656 30.257812 Z M 10.964844 30.238281 C 10.964844 30.230469 10.960938 30.226562 10.960938 30.21875 C 10.960938 30.226562 10.964844 30.230469 10.964844 30.238281 Z M 10.960938 30.21875 C 10.957031 30.210938 10.957031 30.203125 10.953125 30.199219 C 10.957031 30.203125 10.957031 30.210938 10.960938 30.21875 Z M 10.953125 30.199219 C 10.953125 30.191406 10.953125 30.183594 10.949219 30.175781 C 10.953125 30.183594 10.953125 30.191406 10.953125 30.199219 Z M 14.199219 25.953125 C 14.199219 25.945312 14.199219 25.9375 14.199219 25.933594 Z M 13.226562 26.160156 L 13.226562 26.152344 Z M 13.226562 26.140625 C 13.226562 26.132812 13.222656 26.128906 13.222656 26.121094 L 13.222656 26.113281 Z M 13.203125 26.023438 L 13.199219 26.015625 Z M 13.199219 26.007812 C 13.195312 26 13.195312 25.996094 13.191406 25.992188 L 13.191406 25.988281 Z M 13.152344 25.902344 C 13.148438 25.898438 13.144531 25.894531 13.144531 25.890625 L 13.144531 25.886719 Z M 13.152344 25.902344 " fill-opacity="1" fill-rule="evenodd"/></g><g clip-path="url(#0bbd03af53)"><path fill="#2d9ed3" d="M 20 34.132812 C 20.390625 31.195312 20.390625 31.199219 23.078125 30.808594 C 24.464844 30.605469 25.847656 30.375 27.234375 30.183594 C 27.734375 30.113281 28.316406 30.0625 28.371094 30.789062 C 28.417969 31.4375 27.921875 31.601562 27.390625 31.683594 C 26.007812 31.90625 24.628906 32.179688 23.238281 32.34375 C 22.117188 32.476562 21.554688 32.855469 21.742188 34.136719 C 21.855469 34.894531 22.460938 35.96875 21.429688 36.445312 C 20.472656 36.886719 19.855469 35.871094 19.34375 35.300781 C 17.773438 33.542969 15.988281 33.425781 13.8125 33.914062 C 10.785156 34.59375 8.195312 33.808594 6.417969 30.984375 C 5.058594 28.824219 3.628906 26.691406 2.058594 24.683594 C -1.5 20.121094 1.261719 16.265625 6.140625 15.523438 C 9.449219 15.019531 12.820312 14.925781 16.164062 14.636719 C 16.707031 14.589844 17.132812 14.816406 17.539062 15.121094 C 19.789062 16.796875 22.039062 18.472656 24.289062 20.152344 C 24.640625 20.414062 25.136719 20.625 24.976562 21.183594 C 24.824219 21.71875 24.308594 21.703125 23.867188 21.773438 C 19.910156 22.386719 15.953125 22.984375 12 23.613281 C 8.242188 24.214844 6.554688 27.90625 8.722656 30.742188 C 9.644531 31.945312 10.890625 32.46875 12.386719 32.445312 C 12.484375 32.445312 12.582031 32.414062 12.683594 32.402344 C 15.261719 32.132812 18.027344 30.804688 20 34.132812 Z M 20 34.132812 " fill-opacity="1" fill-rule="evenodd"/></g><g clip-path="url(#705999da66)"><path fill="#022234" d="M 27.414062 37.6875 C 27.414062 37.710938 27.371094 37.734375 27.292969 37.757812 C 27.210938 37.78125 27.09375 37.800781 26.933594 37.824219 C 26.777344 37.84375 26.582031 37.863281 26.351562 37.882812 C 26.121094 37.902344 25.863281 37.921875 25.570312 37.9375 C 25.277344 37.953125 24.957031 37.96875 24.617188 37.980469 C 24.273438 37.992188 23.910156 38.003906 23.527344 38.011719 C 23.144531 38.023438 22.75 38.027344 22.34375 38.03125 C 21.941406 38.039062 21.53125 38.039062 21.117188 38.039062 C 20.703125 38.039062 20.292969 38.039062 19.890625 38.03125 C 19.484375 38.027344 19.089844 38.023438 18.707031 38.011719 C 18.324219 38.003906 17.964844 37.992188 17.621094 37.980469 C 17.277344 37.96875 16.957031 37.953125 16.664062 37.9375 C 16.375 37.921875 16.113281 37.902344 15.882812 37.882812 C 15.652344 37.863281 15.457031 37.84375 15.300781 37.824219 C 15.140625 37.800781 15.023438 37.78125 14.941406 37.757812 C 14.863281 37.734375 14.820312 37.710938 14.820312 37.6875 C 14.820312 37.664062 14.863281 37.640625 14.941406 37.621094 C 15.023438 37.597656 15.140625 37.574219 15.300781 37.554688 C 15.457031 37.53125 15.652344 37.511719 15.882812 37.492188 C 16.113281 37.472656 16.375 37.457031 16.664062 37.441406 C 16.957031 37.421875 17.277344 37.410156 17.621094 37.394531 C 17.964844 37.382812 18.324219 37.371094 18.707031 37.363281 C 19.089844 37.355469 19.484375 37.347656 19.890625 37.34375 C 20.292969 37.339844 20.703125 37.335938 21.117188 37.335938 C 21.53125 37.335938 21.941406 37.339844 22.34375 37.34375 C 22.75 37.347656 23.144531 37.355469 23.527344 37.363281 C 23.910156 37.371094 24.273438 37.382812 24.617188 37.394531 C 24.957031 37.410156 25.277344 37.421875 25.570312 37.441406 C 25.863281 37.457031 26.121094 37.472656 26.351562 37.492188 C 26.582031 37.511719 26.777344 37.53125 26.933594 37.554688 C 27.09375 37.574219 27.210938 37.597656 27.292969 37.621094 C 27.371094 37.640625 27.414062 37.664062 27.414062 37.6875 Z M 27.414062 37.6875 " fill-opacity="1" fill-rule="nonzero"/></g></svg>